<svg xmlns="http://www.w3.org/2000/svg"  viewBox="0 0 48 48" width="48px" height="48px"><circle cx="24" cy="24" r="20" fill="#7debf5"/><ellipse cx="24" cy="24" fill="#3dd9eb" rx="11.645" ry="20"/><path fill="#3dd9eb" d="M4,24c0,3.237,0.769,6.295,2.135,9h35.73C43.231,30.295,44,27.237,44,24s-0.769-6.295-2.135-9H6.135 C4.769,17.705,4,20.763,4,24z"/><path fill="#00b3d7" d="M12.355,24c0,3.237,0.448,6.295,1.243,9h20.804c0.795-2.705,1.243-5.763,1.243-9 s-0.448-6.295-1.243-9H13.598C12.803,17.705,12.355,20.763,12.355,24z"/><path fill="#3ddab4" d="M47.786,27.561c-4.654-0.613-9.061,0.081-12.627,2.186c-0.958-4.276-3.666-8.125-7.57-11.151	c-4.929,3.821-7.953,8.955-7.953,14.604c0,5.638,3.012,10.763,7.925,14.582c0,0.001,0,0.002,0,0.003c0.002,0,0.003,0,0.005,0.001	c0.008,0.006,0.016,0.012,0.023,0.018c0.006-0.004,0.011-0.009,0.017-0.013c6.077,0.79,11.729-0.652,15.631-4.554	C47.149,39.326,48.589,33.656,47.786,27.561z"/><path fill="#00b569" d="M27.561,47.781c0.002,0.002,0.004,0.003,0.006,0.005c0.013,0.002,0.027,0.003,0.04,0.004 c4.919-3.82,7.936-8.947,7.936-14.59c0-1.173-0.137-2.322-0.388-3.444c-1.1,0.65-2.123,1.43-3.045,2.352 C28.198,36.02,26.759,41.689,27.561,47.781z"/></svg>